<svg xmlns="http://www.w3.org/2000/svg" width="162" height="162" viewBox="0 0 162 162" version="1.1"><path d="M 73 25.576 C 46.729 32.476, 28.949 55.459, 29.015 82.434 C 29.073 106.405, 45.423 127.447, 68.703 133.511 C 71.848 134.330, 78.056 135, 82.500 135 C 98.133 135, 110.222 129.892, 121.500 118.522 C 127.572 112.400, 134.790 101.457, 133.564 100.231 C 133.338 100.005, 130.200 102.324, 126.592 105.385 C 114.127 115.959, 104.205 119.421, 88.128 118.806 C 79.170 118.464, 76.636 117.981, 72 115.734 C 60.005 109.920, 52.296 100.213, 49.425 87.305 C 48.008 80.940, 47.927 78.648, 48.903 72.631 C 51.084 59.186, 58.662 48.365, 70.119 42.334 C 74.994 39.768, 76.447 39.501, 85.573 39.501 C 94.923 39.500, 95.949 39.700, 99.862 42.290 C 106.052 46.386, 108.197 50.336, 107.723 56.760 C 107.430 60.722, 106.599 62.943, 104.355 65.760 C 98.090 73.627, 82.764 81.747, 65.810 86.181 C 61.240 87.377, 57.339 88.474, 57.142 88.619 C 56.544 89.060, 64.085 101, 64.961 101 C 65.410 101, 71.049 99.182, 77.491 96.961 C 117.264 83.247, 133.748 64.270, 123.688 43.776 C 119.269 34.773, 111.033 28.806, 98.530 25.550 C 91.209 23.643, 80.319 23.654, 73 25.576" stroke="none" fill="#084666" fill-rule="evenodd"/><path d="M 61 2.047 C 32.217 9.479, 9.138 32.859, 1.868 61.950 C -0.953 73.240, -0.425 93.743, 2.965 104.500 C 11.552 131.748, 34.040 153.106, 61.410 160.006 C 72.281 162.746, 89.719 162.746, 100.590 160.006 C 110.474 157.514, 122.423 151.634, 131.377 144.857 C 144.206 135.145, 156.001 117.043, 159.630 101.500 C 160.528 97.650, 161.654 93.719, 162.132 92.764 C 163.373 90.281, 163.244 66.075, 162 68 C 161.240 69.177, 161.027 68.930, 161.015 66.855 C 160.966 58.423, 152.456 40.006, 143.462 28.870 C 133.656 16.728, 116.585 6.027, 100.590 1.994 C 89.881 -0.706, 71.565 -0.681, 61 2.047 M 73 25.576 C 46.729 32.476, 28.949 55.459, 29.015 82.434 C 29.073 106.405, 45.423 127.447, 68.703 133.511 C 71.848 134.330, 78.056 135, 82.500 135 C 98.133 135, 110.222 129.892, 121.500 118.522 C 127.572 112.400, 134.790 101.457, 133.564 100.231 C 133.338 100.005, 130.200 102.324, 126.592 105.385 C 114.127 115.959, 104.205 119.421, 88.128 118.806 C 79.170 118.464, 76.636 117.981, 72 115.734 C 60.005 109.920, 52.296 100.213, 49.425 87.305 C 48.008 80.940, 47.927 78.648, 48.903 72.631 C 51.084 59.186, 58.662 48.365, 70.119 42.334 C 74.994 39.768, 76.447 39.501, 85.573 39.501 C 94.923 39.500, 95.949 39.700, 99.862 42.290 C 106.052 46.386, 108.197 50.336, 107.723 56.760 C 107.430 60.722, 106.599 62.943, 104.355 65.760 C 98.090 73.627, 82.764 81.747, 65.810 86.181 C 61.240 87.377, 57.339 88.474, 57.142 88.619 C 56.544 89.060, 64.085 101, 64.961 101 C 65.410 101, 71.049 99.182, 77.491 96.961 C 117.264 83.247, 133.748 64.270, 123.688 43.776 C 119.269 34.773, 111.033 28.806, 98.530 25.550 C 91.209 23.643, 80.319 23.654, 73 25.576 M 0.389 80.500 C 0.390 87.650, 0.550 90.444, 0.742 86.708 C 0.935 82.973, 0.934 77.123, 0.739 73.708 C 0.545 70.294, 0.387 73.350, 0.389 80.500" stroke="none" fill="#f9fafa" fill-rule="evenodd"/></svg>