<?xml version="1.0" standalone="no"?>
<!DOCTYPE svg PUBLIC "-//W3C//DTD SVG 20010904//EN"
 "http://www.w3.org/TR/2001/REC-SVG-20010904/DTD/svg10.dtd">
<svg version="1.0" xmlns="http://www.w3.org/2000/svg"
 width="162.000000pt" height="162.000000pt" viewBox="0 0 162.000000 162.000000"
 preserveAspectRatio="xMidYMid meet">

<g transform="translate(0.000000,162.000000) scale(0.100000,-0.100000)"
fill="#000000" stroke="none">
<path d="M722 1360 c-191 -51 -347 -199 -404 -383 -32 -102 -32 -255 0 -348
75 -217 272 -359 502 -359 143 0 277 53 381 149 56 54 129 159 129 189 0 7
-26 -10 -57 -38 -32 -28 -94 -69 -138 -91 -286 -141 -592 -5 -647 288 -31 170
63 358 219 434 57 27 185 38 244 20 77 -23 129 -88 129 -161 0 -54 -19 -88
-78 -141 -76 -68 -186 -117 -419 -185 -8 -2 0 -24 23 -64 20 -33 38 -60 40
-60 1 0 50 16 108 35 223 72 388 173 461 279 39 57 40 60 40 145 0 84 -1 90
-37 143 -90 136 -304 200 -496 148z"/>
</g>
</svg>
